<?xml version="1.0" encoding="iso-8859-1"?>
<!-- Generator: Adobe Illustrator 21.0.0, SVG Export Plug-In . SVG Version: 6.00 Build 0)  -->
<svg version="1.1" id="Capa_1" xmlns="http://www.w3.org/2000/svg" xmlns:xlink="http://www.w3.org/1999/xlink" x="0px" y="0px"
	 viewBox="0 0 30 30" style="enable-background:new 0 0 30 30;" xml:space="preserve">
<g>
	<g>
		<defs>
			<rect id="SVGID_1_" x="2.728" y="0.36" width="24.188" height="29.306"/>
		</defs>
		<clipPath id="SVGID_2_">
			<use xlink:href="#SVGID_1_"  style="overflow:visible;"/>
		</clipPath>
		<path style="clip-path:url(#SVGID_2_);" d="M26.381,1.608L9.767,0.36C9.658,0.355,9.552,0.391,9.474,0.463
			C9.435,0.5,9.407,0.542,9.384,0.586L2.996,2.717C2.837,2.77,2.728,2.918,2.728,3.085v22.22c0,0.143,0.078,0.271,0.201,0.341
			l6.445,3.58c0.019,0.061,0.056,0.117,0.103,0.162c0.073,0.064,0.168,0.098,0.26,0.098c0.016,0,0.031,0,0.044-0.003l16.613-1.868
			c0.199-0.022,0.347-0.19,0.347-0.388V1.997C26.741,1.793,26.581,1.623,26.381,1.608L26.381,1.608z M9.27,28.279l-5.763-3.202
			V3.367L9.27,1.446V28.279z M25.962,26.88l-15.834,1.782V1.17l15.834,1.187V26.88z M25.962,26.88"/>
	</g>
	<path d="M12.752,22.22c0.009,0,0.02,0,0.028,0l10.893-0.779c0.377-0.009,0.684-0.318,0.684-0.7V6.204
		c0-0.382-0.307-0.693-0.684-0.701L12.78,4.724c-0.008,0-0.019,0-0.028,0c-0.388,0-0.7,0.316-0.7,0.701v16.093
		C12.051,21.905,12.364,22.22,12.752,22.22L12.752,22.22z M17.577,9.483c0.014-0.011,0.026-0.023,0.039-0.034
		c0.003-0.003,0.006-0.006,0.009-0.009c0.011-0.011,0.025-0.022,0.036-0.034h-0.003c0.184-0.173,0.435-0.452,0.586-0.79
		c0.438-0.271,0.731-0.757,0.731-1.309c0-0.079-0.005-0.154-0.016-0.227l1.321,0.056c0.173,0,0.31-0.139,0.31-0.309V6.062
		l2.988,0.215v14.391l-9.755,0.698v-3.563l8.75-0.307v3.155h0.309v-3.48L19.216,17.3v-5.76l-0.053,0.028l-1.706-0.684
		c0.076-0.023,0.159-0.039,0.229-0.056c0.284-0.064,0.578-0.128,0.675-0.349c0.053-0.117,0.039-0.254-0.044-0.407
		c-0.171-0.31-0.416-0.372-0.598-0.416c-0.098-0.025-0.171-0.045-0.218-0.109C17.524,9.53,17.549,9.508,17.577,9.483L17.577,9.483z
		 M17.097,11.582v0.324l-1.756,0.628V12.21L17.097,11.582z M15.341,12.015v-0.279l1.756-0.678v0.33L15.341,12.015z M17.097,12.099
		v0.327l-1.756,0.628V12.73L17.097,12.099z M17.097,12.618v0.324l-1.756,0.631v-0.324L17.097,12.618z M17.097,13.137v0.327
		l-1.756,0.628v-0.327L17.097,13.137z M17.097,13.656v0.325l-1.756,0.63v-0.327L17.097,13.656z M17.097,14.176V14.5l-1.756,0.631
		v-0.327L17.097,14.176z M17.097,14.695v0.324l-1.756,0.631v-0.325L17.097,14.695z M17.097,15.214v0.324l-1.756,0.628v-0.324
		L17.097,15.214z M17.097,15.734v0.324l-1.756,0.628v-0.324L17.097,15.734z M17.097,16.253v1.123l-1.756,0.061v-0.556L17.097,16.253
		z M19.032,12.207v0.324l-1.751-0.628v-0.327L19.032,12.207z M17.278,11.384v-0.327l1.754,0.678v0.277L17.278,11.384z
		 M19.032,12.727v0.324l-1.751-0.628v-0.327L19.032,12.727z M19.032,13.243v0.327l-1.751-0.63v-0.325L19.032,13.243z M19.032,13.766
		v0.324l-1.751-0.628v-0.327L19.032,13.766z M19.032,14.282v0.327l-1.751-0.63v-0.324L19.032,14.282z M19.032,14.801v0.324
		l-1.751-0.628v-0.324L19.032,14.801z M19.032,15.321v0.327l-1.751-0.631v-0.324L19.032,15.321z M19.032,15.84v0.324l-1.751-0.628
		v-0.324L19.032,15.84z M19.032,16.359v0.324l-1.751-0.628v-0.324L19.032,16.359z M19.032,16.878v0.427l-1.751,0.064v-1.12
		L19.032,16.878z M12.83,5.509l1.739,0.126v0.958c0,0.173,0.14,0.312,0.31,0.312l1.05,0.045c-0.028,0.114-0.045,0.234-0.045,0.357
		c0,0.553,0.296,1.039,0.735,1.309c0.125,0.282,0.318,0.522,0.488,0.695c0.003,0.132,0.053,0.26,0.053,0.26s0.202,0.321,0.483,0.39
		c0.157,0.039,0.29,0.073,0.394,0.263c0.036,0.066,0.042,0.106,0.036,0.123c-0.036,0.075-0.288,0.131-0.455,0.17
		c-0.29,0.064-0.592,0.131-0.698,0.357l0.011,0.003l-1.723,0.69l-0.053-0.028v5.902l-1.648,0.059v0.011L12.83,17.59V5.509z
		 M12.83,17.903l0.678-0.079v3.56l-0.678,0.05V17.903z M12.83,17.903"/>
	<path d="M4.9,21.321l2.753,0.994c0.041,0.016,0.086,0.025,0.131,0.025c0.385,0,0.701-0.316,0.701-0.701V5.545
		c0-0.388-0.316-0.701-0.701-0.701c-0.025,0-0.05,0-0.075,0.006L4.937,5.398C4.571,5.423,4.281,5.727,4.281,6.095v14.53
		C4.281,20.986,4.552,21.281,4.9,21.321L4.9,21.321z M5.06,6.168l2.647-0.525v12.539l-1.48,0.246v2.524l0.312,0.079v-2.337
		l1.167-0.192v3.007l-2.594-0.936c-0.017-0.006-0.034-0.014-0.053-0.016V6.168z M5.06,6.168"/>
	<path d="M14.86,25.289v-0.003c0.184-0.089,0.268-0.24,0.262-0.41c-0.006-0.218-0.17-0.391-0.477-0.366
		c-0.179,0.016-0.341,0.089-0.425,0.165l0.073,0.22c0.059-0.053,0.179-0.12,0.302-0.131c0.162-0.014,0.24,0.075,0.242,0.187
		c0.006,0.165-0.156,0.246-0.287,0.254l-0.126,0.011l0.006,0.229l0.132-0.011c0.173-0.014,0.34,0.056,0.346,0.252
		c0.006,0.131-0.075,0.27-0.29,0.29c-0.145,0.011-0.285-0.039-0.344-0.073l-0.059,0.243c0.084,0.05,0.24,0.092,0.422,0.078
		c0.369-0.03,0.573-0.27,0.561-0.55C15.195,25.45,15.044,25.311,14.86,25.289L14.86,25.289z M14.86,25.289"/>
	<path d="M15.737,24.37c-0.167,0.014-0.324,0.039-0.447,0.072l0.051,1.687c0.092,0.005,0.217,0.005,0.382-0.009
		c0.299-0.025,0.542-0.126,0.69-0.293c0.142-0.159,0.229-0.397,0.22-0.701c-0.009-0.293-0.106-0.488-0.259-0.611
		C16.228,24.395,16.027,24.347,15.737,24.37L15.737,24.37z M15.77,25.866c-0.056,0.006-0.117,0.011-0.154,0.006l-0.039-1.226
		c0.039-0.014,0.103-0.025,0.189-0.033c0.355-0.031,0.558,0.17,0.567,0.547C16.349,25.596,16.139,25.838,15.77,25.866L15.77,25.866z
		 M15.77,25.866"/>
	<path d="M17.853,24.325c-0.176,0.014-0.302,0.039-0.397,0.067l0.051,1.558l0.257-0.02l-0.016-0.598
		c0.034,0.006,0.078,0.003,0.126,0c0.184-0.016,0.346-0.084,0.444-0.207c0.078-0.092,0.117-0.22,0.112-0.371
		c-0.003-0.148-0.061-0.268-0.151-0.338C18.186,24.342,18.046,24.309,17.853,24.325L17.853,24.325z M17.867,25.107
		c-0.054,0.006-0.098,0.006-0.129,0l-0.016-0.536c0.028-0.009,0.078-0.019,0.151-0.025c0.179-0.014,0.293,0.069,0.298,0.246
		C18.174,24.976,18.06,25.091,17.867,25.107L17.867,25.107z M17.867,25.107"/>
	<path d="M19.129,24.644c-0.106,0.008-0.226,0.1-0.271,0.268H18.85l-0.017-0.218l-0.226,0.019c0.011,0.104,0.016,0.212,0.019,0.369
		l0.025,0.773l0.26-0.022l-0.02-0.593c0-0.03,0.003-0.064,0.009-0.089c0.016-0.131,0.101-0.226,0.226-0.237
		c0.031-0.002,0.054,0,0.076,0.003l-0.009-0.271C19.171,24.644,19.157,24.641,19.129,24.644L19.129,24.644z M19.129,24.644"/>
	<path d="M19.369,24.649l0.036,1.142l0.259-0.022l-0.034-1.142L19.369,24.649z M19.369,24.649"/>
	<path d="M19.495,24.473c0.089-0.008,0.145-0.081,0.142-0.167c-0.006-0.089-0.061-0.151-0.151-0.142
		c-0.086,0.005-0.145,0.078-0.142,0.167C19.347,24.417,19.406,24.482,19.495,24.473L19.495,24.473z M19.495,24.473"/>
	<path d="M20.475,24.529c-0.17,0.014-0.279,0.132-0.321,0.224l-0.006,0.003l-0.019-0.173l-0.227,0.019
		c0.009,0.101,0.014,0.209,0.017,0.341l0.028,0.801l0.259-0.023l-0.019-0.67c-0.003-0.034,0-0.067,0.006-0.095
		c0.025-0.089,0.094-0.176,0.198-0.187c0.142-0.011,0.201,0.109,0.207,0.274l0.019,0.645l0.26-0.022l-0.02-0.678
		C20.847,24.627,20.657,24.512,20.475,24.529L20.475,24.529z M20.475,24.529"/>
	<path d="M21.569,25.394c-0.1,0.011-0.137-0.059-0.139-0.198l-0.016-0.505l0.248-0.019l-0.008-0.218l-0.246,0.022l-0.011-0.327
		l-0.251,0.089l0.008,0.259l-0.148,0.011l0.006,0.215l0.151-0.011l0.016,0.536c0.003,0.151,0.034,0.252,0.09,0.313
		c0.05,0.056,0.131,0.084,0.226,0.075c0.081-0.009,0.148-0.025,0.187-0.044l-0.011-0.221C21.648,25.384,21.614,25.392,21.569,25.394
		L21.569,25.394z M21.569,25.394"/>
	<path d="M22.273,24.376c-0.327,0.028-0.492,0.34-0.483,0.656c0.014,0.352,0.215,0.561,0.55,0.533
		c0.148-0.011,0.267-0.054,0.355-0.101l-0.042-0.195c-0.078,0.039-0.164,0.064-0.284,0.075c-0.165,0.014-0.316-0.061-0.327-0.268
		l0.689-0.059c0.006-0.028,0.006-0.07,0.006-0.123C22.728,24.644,22.608,24.347,22.273,24.376L22.273,24.376z M22.036,24.875
		c0.006-0.12,0.069-0.288,0.232-0.302c0.173-0.014,0.221,0.157,0.221,0.262L22.036,24.875z M22.036,24.875"/>
	<path d="M23.443,24.278c-0.109,0.009-0.226,0.1-0.273,0.268h-0.009l-0.014-0.218l-0.229,0.019c0.011,0.104,0.017,0.212,0.022,0.369
		l0.023,0.773l0.262-0.022l-0.02-0.589c-0.002-0.034,0.003-0.064,0.006-0.092c0.02-0.132,0.101-0.227,0.227-0.237
		c0.034-0.003,0.056,0,0.075,0.003l-0.009-0.271C23.482,24.275,23.469,24.275,23.443,24.278L23.443,24.278z M23.443,24.278"/>
</g>
</svg>
