<?xml version="1.0" encoding="iso-8859-1"?>
<!-- Generator: Adobe Illustrator 21.0.0, SVG Export Plug-In . SVG Version: 6.00 Build 0)  -->
<svg version="1.1" id="Capa_1" xmlns="http://www.w3.org/2000/svg" xmlns:xlink="http://www.w3.org/1999/xlink" x="0px" y="0px"
	 viewBox="0 0 30 30" style="enable-background:new 0 0 30 30;" xml:space="preserve">
<g>
	<path d="M29.186,16.381c-0.09-0.018-1.704-0.33-3.87-0.49c0.011-0.199,0.016-0.399,0.016-0.601c0-6.231-5.069-11.3-11.3-11.3
		c-6.231,0-11.3,5.069-11.3,11.3c0,1.314,0.226,2.575,0.64,3.749c-1.445,0.122-2.495,0.325-2.557,0.337L0,19.536l0.355,0.75
		c0.11,0.231,2.715,5.683,5.979,7.332c1.178,0.595,2.28,0.897,3.274,0.897h0.001c1.482,0,2.695-0.67,3.458-1.895
		c1.002,1.197,2.411,1.842,4.08,1.842c1.329,0,2.806-0.406,4.391-1.207c4.412-2.229,7.959-9.649,8.107-9.964L30,16.54L29.186,16.381
		z M23.341,11.615c-0.426-0.349-0.917-0.675-1.469-0.974c-0.683-0.37-1.44-0.686-2.249-0.944c-0.258-0.809-0.573-1.565-0.944-2.249
		c-0.299-0.552-0.625-1.043-0.974-1.469C20.274,6.997,22.324,9.047,23.341,11.615L23.341,11.615z M23.957,14.644h-3.52
		c-0.037-1.187-0.177-2.34-0.411-3.426C22.124,12.038,23.601,13.265,23.957,14.644L23.957,14.644z M14.677,5.364
		c1.379,0.356,2.606,1.833,3.426,3.93c-1.086-0.233-2.239-0.373-3.426-0.411V5.364z M14.677,10.176
		c1.388,0.048,2.71,0.248,3.9,0.568c0.32,1.19,0.52,2.511,0.568,3.9h-4.468V10.176z M14.677,15.935h4.468
		c-0.002,0.057-0.004,0.114-0.007,0.171c-1.077,0.2-2.007,0.496-2.784,0.888c-0.619,0.313-1.179,0.647-1.678,1.001V15.935z
		 M13.386,5.364v3.52c-1.187,0.037-2.34,0.177-3.426,0.411C10.779,7.197,12.007,5.72,13.386,5.364L13.386,5.364z M13.386,10.176
		v4.468H8.918c0.048-1.388,0.248-2.71,0.568-3.9C10.675,10.424,11.997,10.224,13.386,10.176L13.386,10.176z M10.357,5.98
		c-0.349,0.426-0.675,0.917-0.974,1.469c-0.37,0.683-0.686,1.44-0.944,2.249c-0.809,0.258-1.565,0.573-2.249,0.944
		c-0.552,0.299-1.043,0.626-1.469,0.974C5.738,9.047,7.789,6.997,10.357,5.98L10.357,5.98z M8.036,11.218
		c-0.233,1.086-0.373,2.239-0.41,3.426h-3.52C4.462,13.265,5.938,12.038,8.036,11.218L8.036,11.218z M7.626,15.935
		c0.034,1.108,0.158,2.185,0.364,3.206c-0.221-0.037-0.45-0.069-0.687-0.095c-1.705-0.804-2.884-1.899-3.197-3.111H7.626z
		 M11.65,26.361c-0.428,0.472-1.074,0.862-2.042,0.862h0c-0.791,0-1.697-0.255-2.692-0.758c-2.198-1.111-4.18-4.441-4.998-5.96
		c0.815-0.116,2.118-0.264,3.501-0.264c1.842,0,3.275,0.253,4.261,0.751c0.889,0.449,1.568,0.951,2.035,1.492
		c-0.093,0.942,0.087,1.906,0.537,2.851l-6.529-3.057L11.65,26.361z M10.802,20.13c-0.172-0.1-0.352-0.197-0.539-0.292
		c-0.265-0.134-0.556-0.252-0.868-0.356c-0.267-1.096-0.435-2.294-0.478-3.547h4.468v3.159c-0.384,0.398-0.704,0.815-0.96,1.251
		C11.869,20.298,11.327,20.225,10.802,20.13L10.802,20.13z M20.956,26.101c-1.403,0.709-2.684,1.068-3.809,1.068
		c-1.501,0-2.473-0.641-3.095-1.388l8.966-5.743l-9.541,4.864c-0.002-0.004-0.004-0.008-0.006-0.012
		c-1.277-2.528-0.013-4.986,3.467-6.743c1.389-0.702,3.396-1.058,5.966-1.058c2.117,0,4.103,0.25,5.186,0.416
		C27.074,19.437,24.194,24.465,20.956,26.101L20.956,26.101z M20.956,26.101"/>
</g>
</svg>
