<?xml version="1.0" encoding="iso-8859-1"?>
<!-- Generator: Adobe Illustrator 21.0.0, SVG Export Plug-In . SVG Version: 6.00 Build 0)  -->
<svg version="1.1" id="Capa_1" xmlns="http://www.w3.org/2000/svg" xmlns:xlink="http://www.w3.org/1999/xlink" x="0px" y="0px"
	 viewBox="0 0 30 30" style="enable-background:new 0 0 30 30;" xml:space="preserve">
<g>
	<g>
		<defs>
			<rect id="SVGID_1_" y="3.752" width="30" height="22.51"/>
		</defs>
		<clipPath id="SVGID_2_">
			<use xlink:href="#SVGID_1_"  style="overflow:visible;"/>
		</clipPath>
		<path style="clip-path:url(#SVGID_2_);" d="M3.915,26.161h21.95c2.162,0,3.918-1.744,3.918-3.886V10.769
			c0-2.139-1.753-3.88-3.91-3.883l0.032-0.003V6.28c0.021-0.333-0.194-0.6-0.526-0.6H23.27c-0.332,0-0.602,0.267-0.602,0.603v0.599
			h-0.78c-0.32-1.821-1.923-3.212-3.853-3.212h-6.285c-1.93,0-3.533,1.391-3.854,3.212h-3.98C1.756,6.883,0,8.627,0,10.769v11.507
			C0,24.417,1.756,26.161,3.915,26.161L3.915,26.161z M1.294,10.769c0-1.427,1.176-2.589,2.62-2.589h5.212l0.1-1.297
			c0.3-1.1,1.312-1.917,2.521-1.917h6.285c1.209,0,2.221,0.817,2.521,1.917l0.1,1.297h5.209c1.447,0,2.623,1.162,2.623,2.589v11.507
			c0,1.429-1.176,2.591-2.623,2.591H3.915c-1.444,0-2.62-1.162-2.62-2.591V10.769z M10.986,7.889h7.718
			c0.27,0,0.488-0.221,0.488-0.491S18.975,6.91,18.705,6.91h-7.718c-0.271,0-0.489,0.218-0.489,0.488S10.715,7.889,10.986,7.889
			L10.986,7.889z M14.892,23.746c4.03,0,7.307-3.277,7.307-7.306c0-4.03-3.276-7.31-7.307-7.31c-4.029,0-7.309,3.276-7.309,7.31
			C7.583,20.469,10.863,23.746,14.892,23.746L14.892,23.746z M14.892,10.354c3.353,0,6.083,2.73,6.083,6.086
			c0,3.353-2.73,6.086-6.083,6.086c-3.356,0-6.086-2.73-6.086-6.086C8.806,13.084,11.536,10.354,14.892,10.354L14.892,10.354z
			 M11.039,16.846c0-2.424,1.971-4.395,4.395-4.395c0.227,0,0.409-0.182,0.409-0.406c0-0.227-0.182-0.409-0.409-0.409
			c-2.871,0-5.209,2.335-5.209,5.209c0,0.227,0.182,0.409,0.409,0.409C10.857,17.255,11.039,17.072,11.039,16.846L11.039,16.846z
			 M11.039,16.846"/>
	</g>
</g>
</svg>
