<?xml version="1.0" encoding="iso-8859-1"?>
<!-- Generator: Adobe Illustrator 21.0.0, SVG Export Plug-In . SVG Version: 6.00 Build 0)  -->
<svg version="1.1" id="Capa_1" xmlns="http://www.w3.org/2000/svg" xmlns:xlink="http://www.w3.org/1999/xlink" x="0px" y="0px"
	 viewBox="0 0 30 30" style="enable-background:new 0 0 30 30;" xml:space="preserve">
<g>
	<g>
		<path d="M196.582,132.59h-7.199V92.688c0-3.312-2.688-6-6-6h-38.399V-1.48c0-1.687-0.714-3.301-1.964-4.437l-9.293-8.454v-82.23
			c0-1.902-0.903-3.688-2.43-4.82l-19.449-14.399c-1.821-1.351-4.246-1.558-6.27-0.539c-2.023,1.02-3.301,3.094-3.301,5.36v73.57
			l-8.843,10.613c-0.899,1.078-1.391,2.438-1.391,3.844v83.176h-6.426V17.157c0-3.313-2.683-6-6-6H51.555v-54c0-3.313-2.684-6-6-6
			H17.359c-3.312,0-6,2.687-6,6v33.316H5.738v-56.437c0-3.313-2.683-6-6-6h-28.195c-3.313,0-6,2.687-6,6V46.77h-23.242v-74.859
			c0-3.317-2.688-6-6-6h-26.434c-3.312,0-6,2.683-6,6v44.152h-16.676c-3.316,0-6,2.688-6,6v90.727h-7.394V49.794
			c0-3.313-2.684-6-6-6h-19.199c-3.313,0-6,2.687-6,6v82.796H-167c-3.312,0-6,2.688-6,6c0,3.313,2.688,6,6,6h15.598
			c3.316,0,6-2.687,6-6V55.794h7.199v62.996c0,3.312,2.687,6,6,6h13.394v4.199c0,3.312,2.684,6,6,6c3.313,0,6-2.688,6-6V28.063
			h10.676v7.332c0,3.313,2.688,6,6,6c3.313,0,6-2.687,6-6v-57.484h14.434V46.77h-13.305c-3.312,0-6,2.688-6,6v57.02
			c0,3.312,2.688,6,6,6c3.313,0,6-2.688,6-6V58.77h42.547v22.223c0,3.312,2.687,6,6,6c3.316,0,6-2.688,6-6V-59.964h16.195v77.359
			c0,3.313,2.688,6,6,6c3.317,0,6-2.687,6-6V2.477h11.625c3.313,0,6-2.687,6-6v-33.32h16.196v48H20.191c-3.312,0-6,2.687-6,6V54.59
			H0.992c-3.312,0-6,2.688-6,6v48c0,3.313,2.688,6,6,6c3.313,0,6-2.687,6-6v-42h28.797v74.399c0,3.312,2.688,6,6,6
			c3.316,0,6-2.688,6-6V60.594c0-3.316-2.684-6-6-6H26.191V23.157h47.43V97.79c0,3.316,2.684,6,6,6c3.313,0,6-2.684,6-6V72.204
			h6.422v8.789c0,3.312,2.687,6,6,6c3.312,0,6-2.688,6-6V-20.8l8.844-10.614c0.898-1.078,1.39-2.437,1.39-3.839v-63.836l7.45,5.511
			v81.864c0,1.691,0.714,3.304,1.964,4.441l9.293,8.449v108.618c0,3.312,2.688,6,6,6c3.317,0,6-2.688,6-6V98.692h32.399v39.898
			c0,3.313,2.687,6,6,6h13.199c3.313,0,6-2.687,6-6C202.582,135.278,199.895,132.59,196.582,132.59L196.582,132.59z M196.582,132.59
			"/>
	</g>
</g>
</svg>
