<?xml version="1.0" encoding="iso-8859-1"?>
<!-- Generator: Adobe Illustrator 21.0.0, SVG Export Plug-In . SVG Version: 6.00 Build 0)  -->
<svg version="1.1" id="Capa_1" xmlns="http://www.w3.org/2000/svg" xmlns:xlink="http://www.w3.org/1999/xlink" x="0px" y="0px"
	 viewBox="-49 141 512 512" style="enable-background:new -49 141 512 512;" xml:space="preserve">
<g>
	<path d="M428.867,337.267h-90.413c3.261-3.189,5.093-7.562,5.08-12.123s-1.871-8.923-5.15-12.093l-13.833-13.449l13.833-13.451
		c3.292-3.185,5.15-7.57,5.15-12.15s-1.858-8.965-5.15-12.15L219.15,145.908c-6.798-6.506-17.515-6.502-24.308,0.009L75.617,261.85
		c-3.292,3.185-5.15,7.57-5.15,12.15s1.858,8.965,5.15,12.15l13.833,13.451L75.617,313.05c-3.279,3.17-5.137,7.532-5.15,12.094
		s1.819,8.934,5.08,12.123h-90.413C-33.71,337.285-48.981,352.556-49,371.4v247.467c0.019,18.844,15.29,34.115,34.133,34.133
		h443.733c18.844-0.019,34.115-15.29,34.133-34.133V371.4C462.981,352.556,447.71,337.285,428.867,337.267z M87.516,274.083
		L207.258,158.15l119.225,115.767L207.267,389.842c-0.154,0.119-0.367,0.123-0.525,0.009l-98.7-95.837
		c-0.098-0.112-0.129-0.256-0.234-0.364c-0.139-0.142-0.327-0.192-0.473-0.323L87.516,274.083z M101.69,311.503l93.152,90.58
		l0.009,0.009c6.799,6.503,17.514,6.499,24.308-0.009l93.177-90.604l14.148,13.638L206.742,441.05l-99.1-96.367l-20.125-19.4
		L101.69,311.503z M101.69,362.703l93.16,90.589c6.799,6.503,17.514,6.499,24.308-0.009l93.177-90.604l14.148,13.638L206.742,492.25
		l-99.1-96.367l-20.125-19.4L101.69,362.703z M312.336,413.879l14.148,13.638L206.742,543.45L87.516,427.683l14.173-13.78
		l93.161,90.589c6.799,6.503,17.514,6.499,24.308-0.009L312.336,413.879z M19.267,635.933h-34.133
		c-9.421-0.012-17.054-7.646-17.067-17.067v-13.28c5.165,3.074,11.057,4.712,17.067,4.746h34.133V635.933z M19.267,593.267h-34.133
		c-9.421-0.012-17.054-7.646-17.067-17.067V371.4c0.012-9.421,7.646-17.054,17.067-17.067h34.133V593.267z M445.933,618.867
		c-0.012,9.421-7.646,17.054-17.067,17.067H36.333v-25.6h392.533c6.01-0.034,11.902-1.673,17.067-4.746V618.867z M445.933,576.2
		c-0.012,9.421-7.646,17.054-17.067,17.067H36.333V354.333h49.483l-10.199,9.917c-3.292,3.185-5.15,7.57-5.15,12.15
		s1.858,8.965,5.15,12.15l13.833,13.451L75.617,415.45c-3.292,3.185-5.15,7.57-5.15,12.15s1.858,8.965,5.15,12.15L194.85,555.692
		c6.799,6.503,17.514,6.499,24.308-0.009L338.383,439.75c3.292-3.185,5.15-7.57,5.15-12.15s-1.858-8.965-5.15-12.15l-13.833-13.449
		l13.833-13.451c3.292-3.185,5.15-7.57,5.15-12.15c0-4.58-1.858-8.965-5.15-12.15l-10.199-9.917h100.683
		c9.421,0.012,17.054,7.646,17.067,17.067V576.2z"/>
	<path d="M420.333,414.067c-2.264-0.001-4.435,0.897-6.035,2.498c-1.601,1.601-2.499,3.772-2.498,6.035V525
		c0,4.713,3.821,8.533,8.533,8.533c4.713,0,8.533-3.82,8.533-8.533V422.6c0.001-2.264-0.897-4.435-2.498-6.035
		C424.768,414.964,422.597,414.065,420.333,414.067z"/>
	<path d="M-12.392,445.725c2.866,2.925,7.408,3.395,10.811,1.119c3.404-2.276,4.705-6.653,3.097-10.419
		c-0.411-1.045-1.019-2.001-1.791-2.817c-0.831-0.752-1.783-1.358-2.817-1.792c-2.059-0.942-4.425-0.942-6.483,0
		c-2.143,0.777-3.831,2.465-4.608,4.608c-0.481,1.012-0.715,2.123-0.684,3.243C-14.874,441.934-13.985,444.112-12.392,445.725z"/>
	<path d="M-6.333,465.267c-2.264-0.001-4.435,0.897-6.035,2.498c-1.601,1.601-2.499,3.772-2.498,6.035v17.067
		c0,4.713,3.821,8.533,8.533,8.533s8.533-3.821,8.533-8.533V473.8c0.001-2.264-0.897-4.435-2.498-6.035
		C-1.899,466.164-4.07,465.265-6.333,465.267z"/>
</g>
</svg>
