<?xml version="1.0" encoding="iso-8859-1"?>
<!-- Generator: Adobe Illustrator 21.0.0, SVG Export Plug-In . SVG Version: 6.00 Build 0)  -->
<svg version="1.1" id="Capa_1" xmlns="http://www.w3.org/2000/svg" xmlns:xlink="http://www.w3.org/1999/xlink" x="0px" y="0px"
	 viewBox="0 0 30 30" style="enable-background:new 0 0 30 30;" xml:space="preserve">
<g>
	<g>
		<path d="M23.441,6.272c0.49-0.25,0.81-0.756,0.81-1.329c0-0.826-0.672-1.496-1.498-1.496c-0.826,0-1.496,0.67-1.496,1.496
			c0,0.574,0.318,1.079,0.808,1.329l-0.928,11.816L19.96,3.13c0.492-0.253,0.81-0.756,0.81-1.329c0-0.826-0.672-1.498-1.499-1.498
			c-0.823,0-1.496,0.672-1.496,1.498c0,0.574,0.321,1.077,0.81,1.329l-1.712,21.768l-1.379-12.309
			c0.522-0.239,0.873-0.76,0.873-1.36c0-0.815-0.656-1.482-1.47-1.496h-0.057c-0.813,0.015-1.47,0.68-1.47,1.496
			c0,0.6,0.349,1.121,0.873,1.36L13.021,23.53L11.39,2.82c0.488-0.253,0.803-0.756,0.803-1.321C12.192,0.672,11.52,0,10.694,0
			C9.871,0,9.199,0.672,9.199,1.498c0,0.594,0.346,1.115,0.868,1.355L8.865,18.086L7.937,6.272c0.49-0.25,0.808-0.756,0.808-1.329
			c0-0.826-0.67-1.498-1.496-1.498c-0.826,0-1.498,0.672-1.498,1.498c0,0.574,0.32,1.079,0.81,1.329L4.743,29.396L4.693,30h20.614
			L23.441,6.272z M7.395,5.579L7.249,5.613L7.101,5.579C6.804,5.511,6.596,5.248,6.596,4.943c0-0.36,0.294-0.654,0.654-0.654
			s0.654,0.294,0.654,0.654C7.901,5.248,7.695,5.511,7.395,5.579L7.395,5.579z M10.848,2.129l-0.133,0.033l-0.13-0.023
			c-0.316-0.055-0.542-0.323-0.542-0.641c0-0.362,0.292-0.654,0.651-0.654c0.36,0,0.654,0.292,0.654,0.654
			C11.348,1.8,11.142,2.059,10.848,2.129L10.848,2.129z M14.874,11.953c-0.399,0-0.722-0.323-0.722-0.722
			c0-0.399,0.323-0.722,0.722-0.722c0.398,0,0.719,0.323,0.719,0.722C15.593,11.63,15.272,11.953,14.874,11.953L14.874,11.953z
			 M19.418,2.434l-0.146,0.033l-0.143-0.033c-0.3-0.068-0.508-0.329-0.508-0.634c0-0.362,0.294-0.654,0.651-0.654
			c0.362,0,0.657,0.291,0.657,0.654C19.926,2.105,19.72,2.366,19.418,2.434L19.418,2.434z M22.902,5.579l-0.149,0.034l-0.146-0.034
			c-0.3-0.067-0.505-0.331-0.505-0.636c0-0.36,0.294-0.654,0.651-0.654c0.362,0,0.657,0.294,0.657,0.654
			C23.408,5.248,23.199,5.511,22.902,5.579L22.902,5.579z M22.902,5.579"/>
	</g>
</g>
</svg>
