<?xml version="1.0" encoding="utf-8"?>
<!-- Generator: Adobe Illustrator 21.0.0, SVG Export Plug-In . SVG Version: 6.00 Build 0)  -->
<svg version="1.1" id="Capa_1" xmlns="http://www.w3.org/2000/svg" xmlns:xlink="http://www.w3.org/1999/xlink" x="0px" y="0px"
	 viewBox="0 0 30 30" style="enable-background:new 0 0 30 30;" xml:space="preserve">
<style type="text/css">
	.st0{clip-path:url(#SVGID_2_);}
</style>
<g>
	<g>
		<defs>
			<rect id="SVGID_1_" width="30" height="30"/>
		</defs>
		<clipPath id="SVGID_2_">
			<use xlink:href="#SVGID_1_"  style="overflow:visible;"/>
		</clipPath>
		<path class="st0" d="M11,25.8c-4.1-4.6,0.1-7.5-2-11.2c-1.2-2.1-3.1-2.5-4.6-2.4c-0.2,2.1-0.7,6.3,0.2,8.3c0,0-2.3-2.5-2.2-7.2
			C3.2,6.8,8.7,1.5,15.4,1.5c7.2,0,13,6,13,13.3c0,7.3-5.8,13.3-13,13.3c-0.3,0-0.7,0-1,0l1.7-4l-1.4-0.6l-2.1,4.9
			c-0.1,0.2-0.1,0.5,0,0.7c0.1,0.2,0.3,0.4,0.5,0.4c0.7,0.1,1.5,0.2,2.2,0.2c8,0,14.5-6.7,14.5-14.8C29.9,6.7,23.3,0,15.4,0
			C7.6,0,1.2,6.2,0.9,14.1c-0.9,1.3-1.5,3.4,0.3,6.5C4.2,25.9,11,25.8,11,25.8L11,25.8z M11,25.8"/>
	</g>
	<path d="M14.9,12.1l-2.5,8c-0.3,0.6,0,1.2,0.5,1.5l5.4,2.6c0.5,0.3,1.2,0,1.4-0.5l4.4-7c0.3-0.6,0-1.2-0.5-1.5l-7.3-3.5
		C15.8,11.4,15.2,11.6,14.9,12.1L14.9,12.1z M19,22.1l-0.1,0.2c-0.1,0.2-0.3,0.3-0.5,0.2l-4.2-2c-0.2-0.1-0.3-0.3-0.2-0.6l0.1-0.2
		c0.1-0.2,0.3-0.3,0.5-0.2l4.2,2C19,21.6,19.1,21.8,19,22.1L19,22.1z M20.2,19.5l-0.1,0.3C20,20,19.8,20.1,19.6,20l-4.2-2
		c-0.2-0.1-0.3-0.3-0.2-0.6l0.1-0.2c0.1-0.2,0.3-0.3,0.5-0.2l4.2,2C20.2,19.1,20.3,19.3,20.2,19.5L20.2,19.5z M18.3,15.3
		c0.2-0.5,0.8-0.7,1.3-0.5c0.5,0.2,0.7,0.8,0.5,1.3c-0.2,0.5-0.8,0.7-1.3,0.5C18.3,16.4,18.1,15.8,18.3,15.3L18.3,15.3z M18.3,15.3"
		/>
	<path d="M20.3,6.8c-0.3-0.1-0.6,0-0.7,0.3l-2.1,4.5l1,0.5l2.1-4.5C20.7,7.3,20.6,7,20.3,6.8L20.3,6.8z M20.3,6.8"/>
	<path d="M24.7,8.9c-0.3-0.1-0.6,0-0.7,0.3l-2.1,4.5l1,0.5L25,9.7C25.1,9.4,25,9.1,24.7,8.9L24.7,8.9z M24.7,8.9"/>
</g>
</svg>
