<?xml version="1.0" encoding="utf-8"?>
<!-- Generator: Adobe Illustrator 21.0.0, SVG Export Plug-In . SVG Version: 6.00 Build 0)  -->
<svg version="1.1" id="Capa_1" xmlns="http://www.w3.org/2000/svg" xmlns:xlink="http://www.w3.org/1999/xlink" x="0px" y="0px"
	 viewBox="0 0 30 30" style="enable-background:new 0 0 30 30;" xml:space="preserve">
<g>
	<path d="M21.4,27.2h0.1c-1.5-0.2-2.3-0.8-2.7-1.4h-7.6c-0.4,0.6-1.2,1.2-2.7,1.4h0.1c-0.5,0-0.8,0.4-0.8,0.8c0,0.5,0.4,0.8,0.8,0.8
		h12.8c0.5,0,0.8-0.4,0.8-0.8C22.2,27.5,21.9,27.2,21.4,27.2L21.4,27.2z M21.4,27.2"/>
	<path d="M21.2,10.6L20,10.4c-0.1-0.5-0.3-0.9-0.5-1.3l0.7-1c0.1-0.2,0.1-0.4,0-0.6L19.7,7l-0.4-0.4c-0.2-0.2-0.4-0.2-0.6,0l-1,0.7
		c-0.4-0.2-0.9-0.4-1.3-0.6l-0.2-1.2c0-0.2-0.2-0.4-0.5-0.4h-1.2c-0.2,0-0.4,0.2-0.5,0.4l-0.2,1.2c-0.5,0.1-0.9,0.3-1.3,0.5l-1-0.7
		c-0.2-0.1-0.4-0.1-0.6,0L10.4,7L10,7.4C9.8,7.6,9.8,7.8,9.9,8l0.7,1c-0.2,0.4-0.4,0.8-0.5,1.3l-1.2,0.2c-0.2,0-0.4,0.2-0.4,0.5v1.2
		c0,0.2,0.2,0.4,0.4,0.5l1.2,0.2c0.1,0.5,0.3,0.9,0.5,1.3l-0.7,1c-0.1,0.2-0.1,0.4,0,0.6l0.4,0.4l0.4,0.4c0.2,0.2,0.4,0.2,0.6,0
		l1-0.7c0.4,0.2,0.8,0.4,1.3,0.5l0.2,1.2c0,0.2,0.2,0.4,0.5,0.4h1.2c0.2,0,0.4-0.2,0.5-0.4l0.2-1.2c0.5-0.1,0.9-0.3,1.3-0.5l1,0.7
		c0.2,0.1,0.4,0.1,0.6,0l0.9-0.8c0.2-0.2,0.2-0.4,0-0.6l-0.7-1c0.2-0.4,0.4-0.8,0.5-1.3l1.2-0.2c0.2,0,0.4-0.2,0.4-0.5V11
		C21.6,10.8,21.4,10.6,21.2,10.6L21.2,10.6z M15.7,14.7c-1.7,0.4-3.4-0.7-3.8-2.4c-0.4-1.7,0.7-3.4,2.4-3.8c1.7-0.4,3.4,0.7,3.8,2.4
		C18.5,12.6,17.4,14.3,15.7,14.7L15.7,14.7z M15.7,14.7"/>
	<path d="M30,19V3.3c0-1.2-1-2.2-2.2-2.2H2.3c-1.2,0-2.2,1-2.2,2.2v19.2c0,1,0.9,1.8,1.9,1.8h26.1c1,0,1.9-0.8,1.9-1.8L30,19z
		 M16.8,22.3c0,0.3-0.2,0.5-0.5,0.5h-2.5c-0.3,0-0.5-0.2-0.5-0.5V22c0-0.3,0.2-0.5,0.5-0.5h2.5c0.3,0,0.5,0.2,0.5,0.5V22.3z
		 M27.8,19.8H2.3c-0.2,0-0.4-0.2-0.4-0.4v-16C1.9,3.1,2.1,3,2.3,3h25.6c0.2,0,0.4,0.2,0.4,0.4v16C28.2,19.6,28,19.8,27.8,19.8
		L27.8,19.8z M27.8,19.8"/>
</g>
</svg>
