<?xml version="1.0" encoding="utf-8"?>
<!-- Generator: Adobe Illustrator 21.0.0, SVG Export Plug-In . SVG Version: 6.00 Build 0)  -->
<svg version="1.1" id="Capa_1" xmlns="http://www.w3.org/2000/svg" xmlns:xlink="http://www.w3.org/1999/xlink" x="0px" y="0px"
	 viewBox="0 0 30 30" style="enable-background:new 0 0 30 30;" xml:space="preserve">
<g>
	<g>
		<path d="M29.5,24.3h-0.6v-3.2c0-0.3-0.2-0.5-0.5-0.5h-3.1v-7c0-0.1-0.1-0.3-0.2-0.4l-0.7-0.7V6.2c0-0.2-0.1-0.3-0.2-0.4l-1.6-1.1
			c-0.1-0.1-0.3-0.1-0.5,0C22.1,4.7,22,4.8,22,5v5.8l-0.7,0.8c-0.1,0.1-0.1,0.2-0.1,0.3v6.6h-0.5v-3.4c0-0.3-0.2-0.5-0.5-0.5h-2.2
			v-4.3c0-0.3-0.2-0.5-0.5-0.5h-2.3c-0.3,0-0.5,0.2-0.5,0.5v2.6h-0.4V8.6c0-0.3-0.2-0.5-0.5-0.5h-2.2c-0.3,0-0.5,0.2-0.5,0.5v8.9
			H9.2v-5.9c0-0.3-0.2-0.5-0.5-0.5H6.6c-0.3,0-0.5,0.2-0.5,0.5v3.5H4.8c-0.3,0-0.5,0.2-0.5,0.5v7.2H3.7v-5c0-0.3-0.2-0.5-0.5-0.5
			H1.7c-0.3,0-0.5,0.2-0.5,0.5v6.6H0.5c-0.3,0-0.5,0.2-0.5,0.5c0,0.3,0.2,0.5,0.5,0.5h1.2c0.3,0,0.5-0.2,0.5-0.5v-6.6h0.6v5
			c0,0.3,0.2,0.5,0.5,0.5h1.1V24c0,0.3,0.2,0.5,0.5,0.5c0.3,0,0.5-0.2,0.5-0.5v-8h0.9v0.6c0,0.3,0.2,0.5,0.5,0.5
			c0.3,0,0.5-0.2,0.5-0.5v-4.6h1.2v5.5H7.2c-0.3,0-0.5,0.2-0.5,0.5v4.5c0,0.3,0.2,0.5,0.5,0.5c0.3,0,0.5-0.2,0.5-0.5v-4h3.4v1.8
			c0,0.3,0.2,0.5,0.5,0.5c0.3,0,0.5-0.2,0.5-0.5V9.1h1.3v6.1c0,0.3,0.2,0.5,0.5,0.5c0.3,0,0.5-0.2,0.5-0.5V14h0.9
			c0.3,0,0.5-0.2,0.5-0.5v-2.6H17v3.8h-1.5c-0.3,0-0.5,0.2-0.5,0.5v3h-1.1c-0.3,0-0.5,0.2-0.5,0.5v3.8c0,0.3,0.2,0.5,0.5,0.5
			c0.3,0,0.5-0.2,0.5-0.5v-3.3h2.3V25c0,0.3,0.2,0.5,0.5,0.5c0.3,0,0.5-0.2,0.5-0.5v-6.4c0-0.3-0.2-0.5-0.5-0.5h-1.2v-2.5h3.8v5.9
			c0,0.3,0.2,0.5,0.5,0.5c0.3,0,0.5-0.2,0.5-0.5v-2h0.5v0.7c0,0.3,0.2,0.5,0.5,0.5c0.3,0,0.5-0.2,0.5-0.5v-8.1l0.7-0.8
			c0.1-0.1,0.1-0.2,0.1-0.3V6l0.6,0.4v6.5c0,0.1,0.1,0.3,0.2,0.4l0.7,0.7v8.6c0,0.3,0.2,0.5,0.5,0.5c0.3,0,0.5-0.2,0.5-0.5v-0.9H28
			v3.2c0,0.3,0.2,0.5,0.5,0.5h1.1c0.3,0,0.5-0.2,0.5-0.5C30,24.5,29.8,24.3,29.5,24.3L29.5,24.3z M29.5,24.3"/>
	</g>
</g>
</svg>
